<svg id="Layer_1" data-name="Layer 1" xmlns="http://www.w3.org/2000/svg" viewBox="0 0 406.99 407"><defs><style>.cls-1{fill:#32aec2;}</style></defs><path class="cls-1" d="M376.88,0H30C13.46,0,0,13.14,0,29.35V377.63C0,393.84,13.46,407,30,407H376.88c16.6,0,30.11-13.16,30.11-29.37V29.35C407,13.14,393.48,0,376.88,0ZM120.73,346.81H60.3V152.58h60.43ZM90.53,126a35,35,0,1,1,35-35A35,35,0,0,1,90.53,126ZM346.82,346.81H286.46V252.35c0-22.52-.39-51.49-31.37-51.49-31.41,0-36.2,24.54-36.2,49.88v96.07H158.6V152.58h57.86v26.55h.83c8.05-15.27,27.74-31.37,57.11-31.37,61.12,0,72.42,40.22,72.42,92.53Z"/></svg>