<?xml version="1.0" encoding="utf-8"?>
<!-- Generator: Adobe Illustrator 25.1.0, SVG Export Plug-In . SVG Version: 6.00 Build 0)  -->
<svg version="1.1" id="Layer_1" xmlns="http://www.w3.org/2000/svg" xmlns:xlink="http://www.w3.org/1999/xlink" x="0px" y="0px"
	 viewBox="0 0 261.67 268.33" style="enable-background:new 0 0 261.67 268.33;" xml:space="preserve">
<style type="text/css">
	.st0{fill:#14ADCE;}
	.st1{fill:#F1574F;}
	.st2{fill:#19B685;}
	.st3{fill:#EAB944;}
	.st4{fill:#1D2B40;}
	.st5{fill:#1D2B40;stroke:#FFFFFF;stroke-width:2;stroke-miterlimit:10;}
	.st6{font-family:'Roboto-Regular';}
	.st7{font-size:46.5632px;}
</style>
<polygon class="st0" points="88.95,144.5 116.76,172.3 88.95,200.11 "/>
<polygon class="st1" points="144.56,88.84 172.37,116.64 144.56,144.45 "/>
<polygon class="st2" points="88.95,33.22 116.76,61.03 88.95,88.84 "/>
<polygon class="st3" points="33.29,144.5 61.09,116.69 33.29,88.89 "/>
<path class="st4" d="M116.76,116.64l27.8-27.81l27.81,27.81l-27.81,27.81L116.76,116.64z M116.76,5.42L88.95,33.22l27.81,27.8
	L88.95,88.84L61.14,61.03l-27.8,27.81l27.8,27.81l-27.8,27.81l27.8,27.81l27.81-27.81l27.81,27.81l-27.81,27.81l27.81,27.81
	l111.22-111.22L116.76,5.42z"/>
<path class="st5" d="M214.34,262.19H46.32c-21.14,0-38.43-17.29-38.43-38.43v0c0-21.14,17.29-38.43,38.43-38.43h168.03
	c21.14,0,38.43,17.29,38.43,38.43v0C252.77,244.89,235.48,262.19,214.34,262.19z"/>
<text transform="matrix(1 0 0 1 74.1483 240.3263)"><tspan x="0" y="0" class="st3 st6 st7">B</tspan><tspan x="28.99" y="0" class="st0 st6 st7">E</tspan><tspan x="55.45" y="0" class="st1 st6 st7">T</tspan><tspan x="83.24" y="0" class="st2 st6 st7">A</tspan></text>
</svg>
