<svg id="Layer_1" data-name="Layer 1" xmlns="http://www.w3.org/2000/svg" viewBox="0 0 261.67 268.33"><defs><style>.cls-1,.cls-8{fill:#14adce;}.cls-2,.cls-9{fill:#f1574f;}.cls-10,.cls-3{fill:#19b685;}.cls-4,.cls-7{fill:#eab944;}.cls-5,.cls-6{fill:#1d2b40;}.cls-6{stroke:#fff;stroke-miterlimit:10;stroke-width:2px;}.cls-7{font-size:46.56px;font-family:Roboto-Regular, Roboto;}.cls-8{letter-spacing:0em;}.cls-9{letter-spacing:0em;}.cls-10{letter-spacing:0.01em;}.cls-11{fill:#d2519d;}</style></defs><polygon class="cls-1" points="88.95 144.5 116.76 172.31 88.95 200.11 88.95 144.5"/><polygon class="cls-2" points="144.56 88.83 172.37 116.64 144.56 144.45 144.56 88.83"/><polygon class="cls-3" points="88.95 33.22 116.76 61.03 88.95 88.83 88.95 33.22"/><polygon class="cls-4" points="33.29 144.5 61.09 116.69 33.29 88.89 33.29 144.5"/><path class="cls-5" d="M116.76,116.64l27.8-27.8,27.81,27.8-27.81,27.81Zm0-111.22L89,33.22,116.76,61,89,88.84,61.14,61,33.34,88.84l27.8,27.8-27.8,27.81,27.8,27.8L89,144.45l27.81,27.8L89,200.06l27.81,27.8L228,116.64Z"/><rect class="cls-6" x="9.33" y="185.88" width="244.89" height="76.86" rx="38.43"/><text class="cls-7" transform="translate(57.54 240.88)">A<tspan class="cls-8" x="30.38" y="0">L</tspan><tspan class="cls-9" x="55.43" y="0">P</tspan><tspan class="cls-10" x="84.8" y="0">H</tspan><tspan class="cls-11" x="118.41" y="0">A</tspan></text></svg>