<svg id="Layer_1" data-name="Layer 1" xmlns="http://www.w3.org/2000/svg" viewBox="0 0 660.22 390.8"><defs><style>.cls-1{opacity:0.57;}.cls-2{fill:#389bc2;}.cls-3{opacity:0.22;}.cls-4{fill:#d2519d;}.cls-5{fill:#fcb351;}.cls-12,.cls-6{fill:#233963;}.cls-11,.cls-7{fill:#fff;}.cls-8{fill:#557cbe;}.cls-9{fill:#ea9444;}.cls-10{fill:#69579d;}.cls-11{opacity:0.12;}.cls-12{opacity:0.24;}</style></defs><g class="cls-1"><path class="cls-2" d="M206.91,290.7a1,1,0,0,1-1-1,124.53,124.53,0,0,1,53.44-102.15,1,1,0,0,1,1.39.25,1,1,0,0,1-.25,1.39A122.49,122.49,0,0,0,207.91,289.7,1,1,0,0,1,206.91,290.7Z"/><path class="cls-2" d="M453.54,290.7a1,1,0,0,1-1-1,122,122,0,0,0-6.93-40.7,1,1,0,1,1,1.88-.67,124,124,0,0,1,7.05,41.37A1,1,0,0,1,453.54,290.7Z"/><path class="cls-2" d="M443.89,242.78a1,1,0,0,1-.93-.61,122.13,122.13,0,0,0-46.55-55.36,1,1,0,0,1-.3-1.38,1,1,0,0,1,1.38-.3,124.17,124.17,0,0,1,47.32,56.26,1,1,0,0,1-.54,1.31A1,1,0,0,1,443.89,242.78Z"/><path class="cls-2" d="M268,184.2a1,1,0,0,1-.87-.49,1,1,0,0,1,.36-1.37A124.5,124.5,0,0,1,382.85,177a1,1,0,0,1-.85,1.81,122.53,122.53,0,0,0-113.48,5.21A.93.93,0,0,1,268,184.2Z"/><path class="cls-2" d="M185,290.7a1,1,0,0,1-1-1,146.4,146.4,0,0,1,87.39-133.94,1,1,0,0,1,.81,1.83A144.4,144.4,0,0,0,186,289.7,1,1,0,0,1,185,290.7Z"/><path class="cls-2" d="M475.49,290.7a1,1,0,0,1-1-1,145,145,0,0,0-58.42-116,1,1,0,1,1,1.19-1.6,147.4,147.4,0,0,1,43.09,50.7,144.7,144.7,0,0,1,16.14,66.86A1,1,0,0,1,475.49,290.7Z"/><path class="cls-2" d="M408,168a1,1,0,0,1-.53-.15c-3-1.88-6-3.68-9.12-5.34a1,1,0,0,1,.95-1.76c3.13,1.68,6.24,3.5,9.24,5.41A1,1,0,0,1,408,168Z"/><path class="cls-2" d="M392.43,159.39a.92.92,0,0,1-.42-.1A144.81,144.81,0,0,0,284,153a1,1,0,1,1-.64-1.89,146.71,146.71,0,0,1,109.46,6.4,1,1,0,0,1-.43,1.9Z"/><path class="cls-2" d="M499.83,290.7a1,1,0,0,1-1-1,168.46,168.46,0,0,0-8.91-54.23,1,1,0,1,1,1.89-.64,170.46,170.46,0,0,1,9,54.87A1,1,0,0,1,499.83,290.7Z"/><path class="cls-2" d="M487.33,226.68a1,1,0,0,1-.93-.63,168.84,168.84,0,0,0-57.38-73,1,1,0,0,1-.22-1.4,1,1,0,0,1,1.4-.22,170.83,170.83,0,0,1,58.05,73.85,1,1,0,0,1-.55,1.3A1,1,0,0,1,487.33,226.68Z"/><path class="cls-2" d="M419.88,146.71a1,1,0,0,1-.53-.15,169.11,169.11,0,0,0-131.2-20.17,1,1,0,0,1-1.22-.72,1,1,0,0,1,.72-1.21,171.06,171.06,0,0,1,132.76,20.4,1,1,0,0,1-.53,1.85Z"/><path class="cls-2" d="M255.65,138.33a1,1,0,0,1-.9-.56,1,1,0,0,1,.46-1.34,172.74,172.74,0,0,1,16-6.86,1,1,0,1,1,.69,1.87,167.65,167.65,0,0,0-15.86,6.79A1,1,0,0,1,255.65,138.33Z"/><path class="cls-2" d="M160.63,290.7a1,1,0,0,1-1-1A170.49,170.49,0,0,1,244,142.46a1,1,0,1,1,1,1.73A169.38,169.38,0,0,0,161.63,289.7,1,1,0,0,1,160.63,290.7Z"/></g><g class="cls-3"><path class="cls-2" d="M142.73,282.26a1.5,1.5,0,0,1-1.5-1.5A188.46,188.46,0,0,1,201,142.87a191,191,0,0,1,21.51-17.41,1.5,1.5,0,1,1,1.71,2.47,186.16,186.16,0,0,0-80,152.83A1.5,1.5,0,0,1,142.73,282.26Z"/><path class="cls-2" d="M517.72,282.26a1.5,1.5,0,0,1-1.5-1.5,185.56,185.56,0,0,0-10.54-61.9,1.49,1.49,0,0,1,.91-1.91,1.51,1.51,0,0,1,1.92.92,188.59,188.59,0,0,1,10.71,62.89A1.5,1.5,0,0,1,517.72,282.26Z"/><path class="cls-2" d="M503,209.4a1.51,1.51,0,0,1-1.38-.92,185.71,185.71,0,0,0-70.8-84.17,1.5,1.5,0,1,1,1.63-2.52,188.69,188.69,0,0,1,71.93,85.52,1.5,1.5,0,0,1-.8,2A1.47,1.47,0,0,1,503,209.4Z"/><path class="cls-2" d="M235.64,120.33a1.49,1.49,0,0,1-1.3-.74,1.51,1.51,0,0,1,.54-2,189.32,189.32,0,0,1,175.35-8.06A1.5,1.5,0,0,1,409,112.2a186.3,186.3,0,0,0-172.56,7.93A1.49,1.49,0,0,1,235.64,120.33Z"/><path class="cls-2" d="M109.35,282.26a1.5,1.5,0,0,1-1.5-1.5A222.56,222.56,0,0,1,240.72,77.14a1.5,1.5,0,1,1,1.21,2.74A219.56,219.56,0,0,0,110.85,280.76,1.5,1.5,0,0,1,109.35,282.26Z"/><path class="cls-2" d="M551.1,282.26a1.5,1.5,0,0,1-1.5-1.5,220.46,220.46,0,0,0-88.84-176.33,1.5,1.5,0,0,1,1.79-2.41,224.52,224.52,0,0,1,65.51,77.1A219.93,219.93,0,0,1,552.6,280.76,1.5,1.5,0,0,1,551.1,282.26Z"/><path class="cls-2" d="M448.5,95.69a1.5,1.5,0,0,1-.81-.24c-4.5-2.86-9.17-5.59-13.86-8.1a1.5,1.5,0,0,1,1.42-2.65c4.76,2.56,9.48,5.32,14.05,8.22a1.5,1.5,0,0,1-.8,2.77Z"/><path class="cls-2" d="M424.81,82.61a1.5,1.5,0,0,1-.64-.15A220.21,220.21,0,0,0,260,72.87a1.5,1.5,0,0,1-1.9-.94A1.49,1.49,0,0,1,259,70a223.2,223.2,0,0,1,166.42,9.72,1.5,1.5,0,0,1-.65,2.86Z"/><path class="cls-2" d="M588.09,282.26a1.5,1.5,0,0,1-1.5-1.5,256,256,0,0,0-13.54-82.46,1.5,1.5,0,1,1,2.84-1,259.08,259.08,0,0,1,13.7,83.42A1.5,1.5,0,0,1,588.09,282.26Z"/><path class="cls-2" d="M569.09,184.91a1.5,1.5,0,0,1-1.39-.93A256.71,256.71,0,0,0,480.45,73a1.5,1.5,0,0,1,1.76-2.43,259.66,259.66,0,0,1,88.27,112.28,1.5,1.5,0,0,1-.83,2A1.36,1.36,0,0,1,569.09,184.91Z"/><path class="cls-2" d="M466.54,63.33a1.45,1.45,0,0,1-.79-.23A257.12,257.12,0,0,0,266.24,32.44a1.5,1.5,0,0,1-.74-2.91,260.13,260.13,0,0,1,201.84,31,1.49,1.49,0,0,1,.48,2.06A1.51,1.51,0,0,1,466.54,63.33Z"/><path class="cls-2" d="M216.84,50.59a1.5,1.5,0,0,1-.66-2.84,258.26,258.26,0,0,1,24.4-10.45,1.5,1.5,0,1,1,1,2.82A254.87,254.87,0,0,0,217.5,50.44,1.55,1.55,0,0,1,216.84,50.59Z"/><path class="cls-2" d="M72.36,282.26a1.5,1.5,0,0,1-1.5-1.5A259.25,259.25,0,0,1,199.14,56.91a1.5,1.5,0,0,1,1.52,2.59A257.54,257.54,0,0,0,73.86,280.76,1.5,1.5,0,0,1,72.36,282.26Z"/></g><path class="cls-4" d="M385.33,306.3a8,8,0,0,1-3.39-.74,8.18,8.18,0,0,1-4.33-4.65l-2.47-6.7a41.28,41.28,0,0,1-16.2-.47l-3,6.55a8.39,8.39,0,0,1-4.65,4.38,8.21,8.21,0,0,1-6.36-.18,8.34,8.34,0,0,1-4.09-11.05l3-6.55a41.24,41.24,0,0,1-11-11.88l-6.67,2.55a8.23,8.23,0,0,1-10.68-4.85,8.44,8.44,0,0,1,4.89-10.77l6.68-2.56a42,42,0,0,1,.61-16.34l-6.47-2.94a8.38,8.38,0,0,1,.57-15.43,8.18,8.18,0,0,1,6.35.18l6.46,2.94a42.3,42.3,0,0,1,11.9-11.23L344,209.85a8.44,8.44,0,0,1,4.88-10.77,8.23,8.23,0,0,1,10.69,4.84l2.47,6.7a41.1,41.1,0,0,1,16.2.47l3-6.55a8.35,8.35,0,0,1,11-4.2,8.18,8.18,0,0,1,4.32,4.66,8.38,8.38,0,0,1-.23,6.39l-3,6.55a41.25,41.25,0,0,1,11,11.88l6.67-2.55a8.24,8.24,0,0,1,10.68,4.85,8.44,8.44,0,0,1-4.89,10.77l-6.68,2.56a42.22,42.22,0,0,1-.61,16.34l6.46,2.94A8.37,8.37,0,0,1,409.07,280L402.6,277a42,42,0,0,1-11.9,11.22l2.48,6.72a8.44,8.44,0,0,1-4.89,10.77A8.21,8.21,0,0,1,385.33,306.3Zm-8.88-14.38,3.06,8.28a6.2,6.2,0,0,0,8.06,3.66,6.41,6.41,0,0,0,3.72-8.18l-3.06-8.28L389,287a40.15,40.15,0,0,0,12.47-11.77l.48-.69,8,3.62a6.35,6.35,0,0,0,5.25-11.56l-8-3.63.21-.82A40.15,40.15,0,0,0,408,245l-.15-.83,8.24-3.15a6.41,6.41,0,0,0,3.71-8.18,6.2,6.2,0,0,0-8.06-3.66l-8.25,3.15-.44-.73a39.32,39.32,0,0,0-11.57-12.47l-.69-.48,3.67-8.08a6.37,6.37,0,0,0,.18-4.85,6.19,6.19,0,0,0-3.27-3.52,6.32,6.32,0,0,0-8.33,3.2l-3.66,8.08-.82-.21a39.31,39.31,0,0,0-17-.5l-.84.16-3.06-8.29A6.21,6.21,0,0,0,349.6,201a6.42,6.42,0,0,0-3.72,8.19l3.06,8.27-.72.44a40.27,40.27,0,0,0-12.48,11.76l-.47.7-8-3.63a6.15,6.15,0,0,0-4.8-.13,6.36,6.36,0,0,0-.45,11.7l8,3.63-.21.82a40.15,40.15,0,0,0-.64,17.14l.14.83-8.23,3.14a6.43,6.43,0,0,0-3.72,8.19,6.22,6.22,0,0,0,8.07,3.66l8.25-3.16.44.74a39.14,39.14,0,0,0,11.56,12.46l.7.48-3.67,8.08a6.33,6.33,0,0,0,3.08,8.38,6.2,6.2,0,0,0,4.8.14,6.4,6.4,0,0,0,3.54-3.34l3.66-8.08.82.21a39.16,39.16,0,0,0,17,.49Zm-8.17-8.56a30.39,30.39,0,0,1-28.5-19.94,31.26,31.26,0,0,1,18.11-39.93,30.32,30.32,0,0,1,23.5.69,30.87,30.87,0,0,1,15.12,40.9h0A31.07,31.07,0,0,1,368.28,283.36Zm.57-59.89a29.18,29.18,0,0,0-27.17,39.25,28.26,28.26,0,0,0,14.93,16.09A29,29,0,0,0,380.56,226,28.25,28.25,0,0,0,368.85,223.47Z"/><path class="cls-4" d="M285.55,291.49a5.75,5.75,0,0,1-5.77-5.74l0-4.4a27.57,27.57,0,0,1-9.5-3.77l-3.1,3.17a5.88,5.88,0,0,1-4.1,1.77,5.53,5.53,0,0,1-4.13-1.65,5.72,5.72,0,0,1-1.73-4.09,5.86,5.86,0,0,1,1.68-4.14l3.11-3.17a27.26,27.26,0,0,1-4-9.42l-4.4.07a5.9,5.9,0,0,1-4.13-1.64,5.72,5.72,0,0,1-1.73-4.09,5.9,5.9,0,0,1,5.78-5.9l4.42-.08a28,28,0,0,1,3.89-9.56l-3.13-3.06A5.76,5.76,0,0,1,257,231.7a5.91,5.91,0,0,1,5.78-5.91,5.73,5.73,0,0,1,4.13,1.65L270,230.5a28.17,28.17,0,0,1,9.48-4.09l0-4.41a5.91,5.91,0,0,1,5.78-5.91,5.8,5.8,0,0,1,4.13,1.65,5.72,5.72,0,0,1,1.73,4.09l0,4.4a27.4,27.4,0,0,1,9.5,3.78l3.1-3.17h0a5.8,5.8,0,0,1,4.1-1.77,5.64,5.64,0,0,1,4.13,1.64,5.83,5.83,0,0,1,0,8.23l-3.11,3.17a27.42,27.42,0,0,1,4,9.42l4.4-.07a5.82,5.82,0,0,1,4.13,1.64,5.74,5.74,0,0,1,1.73,4.1,5.9,5.9,0,0,1-5.78,5.9l-4.42.07a28,28,0,0,1-3.89,9.56l3.13,3.06a5.87,5.87,0,0,1-4.05,10,5.68,5.68,0,0,1-4.13-1.64l-3.13-3.07a28,28,0,0,1-9.48,4.09l0,4.42a5.9,5.9,0,0,1-5.78,5.9ZM270,275l.7.47a25.59,25.59,0,0,0,10.24,4.07l.85.14,0,6.09a3.74,3.74,0,0,0,3.75,3.73h.06a3.86,3.86,0,0,0,3.79-3.87l0-6.08.82-.16A26.21,26.21,0,0,0,300.4,275l.69-.5,4.33,4.24a3.6,3.6,0,0,0,2.68,1.07,3.86,3.86,0,0,0,2.69-1.16,3.79,3.79,0,0,0,0-5.37L306.45,269l.47-.7a25.87,25.87,0,0,0,4.19-10.3l.15-.82,6.08-.1a3.87,3.87,0,0,0,3.79-3.87,3.77,3.77,0,0,0-1.12-2.66,3.72,3.72,0,0,0-2.62-1.07h-.07l-6.09.1-.16-.84a25.43,25.43,0,0,0-4.28-10.16l-.49-.68,4.28-4.37a3.8,3.8,0,0,0,0-5.37,3.52,3.52,0,0,0-2.69-1.07,3.83,3.83,0,0,0-2.68,1.16h0l-4.28,4.37-.7-.47A25.3,25.3,0,0,0,290,228.08l-.85-.14,0-6.1a3.74,3.74,0,0,0-3.74-3.73h-.07a3.86,3.86,0,0,0-3.79,3.87l0,6.07-.82.17a25.92,25.92,0,0,0-10.21,4.4l-.69.49-4.33-4.24a3.67,3.67,0,0,0-2.68-1.06,3.84,3.84,0,0,0-3.79,3.87,3.71,3.71,0,0,0,1.12,2.66l4.33,4.24-.48.7a25.82,25.82,0,0,0-4.19,10.3l-.15.82-6.08.1a3.86,3.86,0,0,0-3.79,3.87,3.72,3.72,0,0,0,3.81,3.72l6.09-.09.16.84A25.39,25.39,0,0,0,264.12,269l.49.69-4.28,4.37a3.83,3.83,0,0,0-1.11,2.71,3.77,3.77,0,0,0,1.12,2.66,3.62,3.62,0,0,0,2.69,1.06,3.75,3.75,0,0,0,2.68-1.16Zm15.23-.57A20.24,20.24,0,0,1,271,268.59a20.77,20.77,0,0,1,14.39-35.4,20.33,20.33,0,0,1,20.7,20.28,20.86,20.86,0,0,1-20.49,20.92Zm.47-39.19h-.31a18.74,18.74,0,0,0-13,31.93,18.29,18.29,0,0,0,13.15,5.23,18.7,18.7,0,0,0,13.12-5.66h0A18.64,18.64,0,0,0,304,253.48a18.31,18.31,0,0,0-18.34-18.27Z"/><path class="cls-4" d="M302.87,374.05a7.06,7.06,0,0,1-2.46-.44,7.06,7.06,0,0,1-4.18-9.14L298.3,359a34.39,34.39,0,0,1-9.82-9.06l-5.36,2.45a7.15,7.15,0,0,1-9.47-3.48,7,7,0,0,1-.18-5.44,7.18,7.18,0,0,1,3.75-4l5.35-2.45a34.67,34.67,0,0,1-.43-13.35l-5.48-2a7.06,7.06,0,0,1-4.18-9.14,7.23,7.23,0,0,1,9.22-4.22l5.5,2a35.47,35.47,0,0,1,9.22-9.85L294,295.2a7,7,0,0,1-.18-5.44,7.19,7.19,0,0,1,13.22-.52l2.42,5.28A35.37,35.37,0,0,1,323,294L325,288.5a7.24,7.24,0,0,1,9.22-4.21,7,7,0,0,1,4.18,9.14l-2.07,5.46a34.53,34.53,0,0,1,9.82,9.06l5.36-2.45a7.16,7.16,0,0,1,5.47-.21,7,7,0,0,1,4,3.69,7.06,7.06,0,0,1,.18,5.45,7.16,7.16,0,0,1-3.75,4l-5.35,2.45a34.72,34.72,0,0,1,.43,13.36l5.48,2a7.05,7.05,0,0,1,4.18,9.15,7.23,7.23,0,0,1-9.22,4.21l-5.49-2a35.61,35.61,0,0,1-9.23,9.84l2.41,5.28a7.06,7.06,0,0,1,.18,5.45,7.23,7.23,0,0,1-9.22,4.21,7,7,0,0,1-4-3.7l-2.42-5.28a35.16,35.16,0,0,1-13.48.54l-2.07,5.48A7.24,7.24,0,0,1,302.87,374.05Zm-13.71-26.63.48.69a32.74,32.74,0,0,0,10.41,9.6l.74.43-2.67,7.05a5,5,0,0,0,3,6.53,5.21,5.21,0,0,0,6.64-3l2.66-7,.82.15a33.41,33.41,0,0,0,14.28-.58l.82-.21,3.11,6.81a5,5,0,0,0,2.86,2.64,5.21,5.21,0,0,0,6.64-3,5,5,0,0,0-.13-3.89l-3.11-6.81.7-.48a33.64,33.64,0,0,0,9.77-10.42l.43-.72,7.06,2.58a5.2,5.2,0,0,0,6.63-3,5,5,0,0,0-3-6.53l-7.08-2.59.16-.84a32.64,32.64,0,0,0-.46-14.15l-.21-.82,6.88-3.14a5.19,5.19,0,0,0,2.7-2.88,5,5,0,0,0-3-6.53,5.15,5.15,0,0,0-3.93.16l-6.88,3.15-.48-.69a32.89,32.89,0,0,0-10.41-9.61l-.74-.43,2.67-7.05a5,5,0,0,0-3-6.52,5.21,5.21,0,0,0-6.64,3l-2.66,7-.82-.15a33.58,33.58,0,0,0-14.28.58l-.82.21-3.11-6.81a5.17,5.17,0,0,0-9.5.39,5,5,0,0,0,.13,3.89l3.11,6.81-.7.49a33.53,33.53,0,0,0-9.77,10.42l-.43.71L281,310.21a5.21,5.21,0,0,0-6.63,3,5,5,0,0,0,3,6.53l7.08,2.59-.16.84a32.69,32.69,0,0,0,.46,14.16l.21.81-6.88,3.15a5.17,5.17,0,0,0-2.7,2.87,5,5,0,0,0,.13,3.89,5.11,5.11,0,0,0,6.79,2.48Zm28,7.41a25.91,25.91,0,1,1,23.93-36.74,25.52,25.52,0,0,1,.63,19.8,26.34,26.34,0,0,1-24.56,16.94Zm.36-49.74a23.88,23.88,0,1,0,9.72,45.51h0a24.05,24.05,0,0,0,12.59-13.43,23.51,23.51,0,0,0-.58-18.24A23.84,23.84,0,0,0,317.51,305.09Z"/><rect class="cls-5" x="194.42" y="79.67" width="35.21" height="29.04" rx="2.58" transform="translate(27.49 -46.42) rotate(13.35)"/><path class="cls-6" d="M223.88,113.35a3.83,3.83,0,0,1-.94-.11h0L193.7,106.3a4.09,4.09,0,0,1-3-4.91l5.52-23.23a4.09,4.09,0,0,1,4.91-3l29.24,6.94a4.09,4.09,0,0,1,3,4.92l-5.52,23.22A4.08,4.08,0,0,1,223.88,113.35Zm-.25-3a1.07,1.07,0,0,0,1.3-.8l5.52-23.23a1.08,1.08,0,0,0-.8-1.3l-29.24-6.94a1.08,1.08,0,0,0-1.3.8l-5.52,23.23a1.09,1.09,0,0,0,.81,1.3l29.23,6.94Z"/><path class="cls-7" d="M209.64,99.68a2.14,2.14,0,0,1-.5-.06,2.35,2.35,0,0,1-1.5-1L204,92.81a1.5,1.5,0,0,1,2.53-1.61l3.33,5.23,12.41-8A1.5,1.5,0,0,1,223.87,91l-13,8.35A2.34,2.34,0,0,1,209.64,99.68Z"/><rect class="cls-2" x="441.1" y="86.68" width="35.21" height="29.04" rx="2.58" transform="translate(-8.37 51.28) rotate(-6.34)"/><path class="cls-6" d="M445.09,118.81a4.08,4.08,0,0,1-4-3.63L438.4,91.45A4.09,4.09,0,0,1,442,86.94l29.86-3.32a4.09,4.09,0,0,1,4.51,3.61L479,111a4.09,4.09,0,0,1-3.61,4.5l-29.86,3.32ZM472.32,86.6h-.12l-29.86,3.32a1.09,1.09,0,0,0-1,1.2L444,114.85a1.05,1.05,0,0,0,.4.72,1.07,1.07,0,0,0,.79.23l29.87-3.32h0a1.07,1.07,0,0,0,.95-1.19L473.4,87.56A1.09,1.09,0,0,0,472.32,86.6Z"/><path class="cls-7" d="M457.51,107.31a2.29,2.29,0,0,1-1.44-.5l-5.41-4.19a1.5,1.5,0,0,1,1.84-2.37l4.9,3.8,9-11.71a1.5,1.5,0,1,1,2.38,1.83l-9.38,12.22a2.33,2.33,0,0,1-1.57.9Z"/><circle class="cls-2" cx="115.85" cy="135.68" r="8.16"/><circle class="cls-2" cx="329.76" cy="22.89" r="8.16"/><path class="cls-8" d="M168.05,133.85a3.1,3.1,0,1,1-3.1-3.1A3.1,3.1,0,0,1,168.05,133.85Z"/><path class="cls-8" d="M525,106.67a3.1,3.1,0,1,1-3.1-3.1A3.1,3.1,0,0,1,525,106.67Z"/><circle class="cls-8" cx="227.27" cy="45.12" r="3.1"/><circle class="cls-5" cx="125.19" cy="191.67" r="3.1"/><circle class="cls-9" cx="541.77" cy="218.37" r="3.1"/><path class="cls-9" d="M593.42,256.87a5.72,5.72,0,1,1-5.72-5.71A5.71,5.71,0,0,1,593.42,256.87Z"/><path class="cls-9" d="M412.71,72.6A6.75,6.75,0,1,1,406,65.84,6.75,6.75,0,0,1,412.71,72.6Z"/><rect class="cls-8" x="118.97" y="257.79" width="136.97" height="99.62" rx="14.94" transform="translate(-0.65 0.39) rotate(-0.12)"/><path class="cls-6" d="M134,359a16.46,16.46,0,0,1-16.44-16.41l-.15-69.73a16.46,16.46,0,0,1,16.41-16.48l107.09-.22h0a16.45,16.45,0,0,1,16.44,16.41l.15,69.73a16.47,16.47,0,0,1-16.41,16.47h0L134,359Zm107.12-1.73h0Zm-.18-98.11h0l-107.08.22a13.46,13.46,0,0,0-13.42,13.47l.15,69.73A13.45,13.45,0,0,0,134,356h0l107.09-.23a13.49,13.49,0,0,0,13.41-13.47l-.15-69.73A13.45,13.45,0,0,0,240.93,259.18Z"/><rect class="cls-10" x="118.97" y="257.79" width="136.97" height="99.62" rx="14.94" transform="translate(-0.65 0.39) rotate(-0.12)"/><rect class="cls-7" x="209.06" y="240.79" width="67.88" height="91" rx="1.28" transform="translate(265.72 -88.54) rotate(43.79)"/><path class="cls-6" d="M236,343.59a2.75,2.75,0,0,1-1.92-.77h0L186.9,297.61a2.77,2.77,0,0,1-.86-1.95,2.8,2.8,0,0,1,.77-2L248,229.84a2.78,2.78,0,0,1,3.93-.08L299.1,275a2.77,2.77,0,0,1,.09,3.92L238,342.74a2.78,2.78,0,0,1-1.95.85Zm.16-2.94Zm-47-45L236,340.5,296.87,277,250,232.08Z"/><path class="cls-5" d="M284.14,277.5a1,1,0,0,1-.69-.28l-17.75-17a1,1,0,1,1,1.38-1.44l17.76,17a1,1,0,0,1,0,1.41A1,1,0,0,1,284.14,277.5Z"/><path class="cls-6" d="M275.22,289.22a1,1,0,0,1-.69-.28L239,254.9a1,1,0,0,1,1.39-1.45l35.5,34.05a1,1,0,0,1,0,1.41A1,1,0,0,1,275.22,289.22Z"/><path class="cls-6" d="M263.65,301.29a1,1,0,0,1-.7-.28l-35.5-34a1,1,0,0,1,1.38-1.44l35.51,34a1,1,0,0,1,0,1.41A1,1,0,0,1,263.65,301.29Z"/><path class="cls-6" d="M252.75,312.65a1,1,0,0,1-.69-.28l-35.51-34a1,1,0,1,1,1.39-1.44l35.51,34a1,1,0,0,1,0,1.41A1,1,0,0,1,252.75,312.65Z"/><path class="cls-6" d="M241.18,324.72a1,1,0,0,1-.69-.27L205,290.4a1,1,0,0,1,1.38-1.44l35.51,34a1,1,0,0,1,0,1.42A1,1,0,0,1,241.18,324.72Z"/><rect class="cls-7" x="126.55" y="208.83" width="67.88" height="91" rx="1.28" transform="translate(-84.26 79.58) rotate(-22.22)"/><path class="cls-6" d="M147,310.4a2.78,2.78,0,0,1-2.57-1.73L111,226.8a2.79,2.79,0,0,1,1.52-3.63L173,198.47a2.78,2.78,0,0,1,3.63,1.52L210,281.87a2.78,2.78,0,0,1-1.52,3.62h0L148,310.19A2.77,2.77,0,0,1,147,310.4Zm-33.16-84.53,33.28,81.46,60.06-24.53-33.28-81.47Zm94.12,58.23h0Zm-.57-1.39Z"/><path class="cls-6" d="M165,230.93a1,1,0,0,1-.92-.63,1,1,0,0,1,.55-1.3l10.4-4.25a1,1,0,0,1,.75,1.85l-10.4,4.25A1,1,0,0,1,165,230.93Z"/><path class="cls-6" d="M136.14,260.76a1,1,0,0,1-.92-.62,1,1,0,0,1,.54-1.3l45.54-18.61a1,1,0,0,1,.76,1.86l-45.54,18.6A1,1,0,0,1,136.14,260.76Z"/><path class="cls-5" d="M167.88,260.09a1,1,0,0,1-.38-1.93l18.1-7.39a1,1,0,1,1,.76,1.85L168.26,260A1,1,0,0,1,167.88,260.09Z"/><path class="cls-5" d="M140.45,271.3a1,1,0,0,1-.38-1.93l11.08-4.53a1,1,0,0,1,.75,1.86l-11.08,4.52A1,1,0,0,1,140.45,271.3Z"/><path class="cls-6" d="M144,283.58a1,1,0,0,1-.93-.62,1,1,0,0,1,.55-1.31l28.05-11.46a1,1,0,0,1,.75,1.86l-28,11.45A1,1,0,0,1,144,283.58Z"/><rect class="cls-5" x="126.16" y="212.8" width="30.36" height="32.28" rx="2" transform="translate(-79.37 75.06) rotate(-23.43)"/><path class="cls-6" d="M134.87,250.16a3.08,3.08,0,0,1-1.11-.21,3,3,0,0,1-1.65-1.6l-11.24-25.94a3,3,0,0,1,1.57-4L146.62,208a3,3,0,0,1,3.95,1.56l11.24,25.94a3,3,0,0,1,0,2.3,3,3,0,0,1-1.6,1.65h0l-24.18,10.48A3.06,3.06,0,0,1,134.87,250.16Zm12.94-40.43a1.14,1.14,0,0,0-.4.08l-24.18,10.48a1,1,0,0,0-.53.55,1,1,0,0,0,0,.77L134,247.55a1,1,0,0,0,.55.54,1,1,0,0,0,.77,0l24.18-10.47A1,1,0,0,0,160,237a1,1,0,0,0,0-.76l-11.24-25.94A1,1,0,0,0,147.81,209.73Zm12,28.78h0Z"/><path class="cls-6" d="M134.06,224.77a2.34,2.34,0,0,1-2.17-1.42l-1.32-3a.5.5,0,0,1,.92-.39l1.31,3a1.44,1.44,0,0,0,.75.73,1.41,1.41,0,0,0,1,0l.22-.1a1.05,1.05,0,0,0,.55-1.38l-3.34-7.7a1.09,1.09,0,0,0-1.43-.57l-.38.17a1.16,1.16,0,0,0-.6,1.52l.08.19a.5.5,0,0,1-.91.4l-.09-.19a2.16,2.16,0,0,1,1.12-2.84l.38-.17a2.1,2.1,0,0,1,2.75,1.09l3.34,7.7a2.05,2.05,0,0,1-1.07,2.7l-.22.1A2.36,2.36,0,0,1,134.06,224.77Z"/><path class="cls-7" d="M148.24,213.41a2.12,2.12,0,1,1-3,0A2.12,2.12,0,0,1,148.24,213.41Z"/><rect class="cls-7" x="183.31" y="143.83" width="67.88" height="91" rx="1.28" transform="translate(-56.71 99.95) rotate(-23)"/><path class="cls-6" d="M204.46,245.58a2.91,2.91,0,0,1-1-.2,2.76,2.76,0,0,1-1.51-1.49l-34.57-81.42a2.79,2.79,0,0,1,1.47-3.64L229,133.3a2.78,2.78,0,0,1,3.64,1.47l34.56,81.42a2.74,2.74,0,0,1,0,2.12,2.78,2.78,0,0,1-1.49,1.52l-60.13,25.53A3,3,0,0,1,204.46,245.58Zm-34.27-84.07,34.39,81,59.72-25.36-34.39-81Z"/><path class="cls-6" d="M221.38,165.87A1,1,0,0,1,221,164l10.34-4.4a1,1,0,0,1,.78,1.85l-10.34,4.39A1.09,1.09,0,0,1,221.38,165.87Z"/><path class="cls-6" d="M193,196.09a1,1,0,0,1-.39-1.92L237.86,175a1,1,0,1,1,.78,1.84L193.36,196A.88.88,0,0,1,193,196.09Z"/><path class="cls-5" d="M224.7,195a1,1,0,0,1-.39-1.93l18-7.64a1,1,0,0,1,.78,1.84l-18,7.65A1.09,1.09,0,0,1,224.7,195Z"/><path class="cls-5" d="M197.42,206.57a1,1,0,0,1-.39-1.93l11-4.67a1,1,0,0,1,.78,1.84l-11,4.68A1.09,1.09,0,0,1,197.42,206.57Z"/><path class="cls-6" d="M201.16,218.8a1,1,0,0,1-.39-1.92L228.66,205a1,1,0,0,1,.78,1.84l-27.89,11.84A1.09,1.09,0,0,1,201.16,218.8Z"/><rect class="cls-2" x="174.95" y="209.89" width="67.88" height="91" rx="1.28" transform="translate(40.67 -28.44) rotate(8.63)"/><path class="cls-6" d="M234.55,306.79l-.42,0h0L169.54,297a2.78,2.78,0,0,1-2.33-3.16l13.27-87.45a2.78,2.78,0,0,1,3.16-2.33l64.59,9.8a2.78,2.78,0,0,1,2.33,3.16l-13.27,87.45a2.78,2.78,0,0,1-2.74,2.36ZM170.21,294l64.15,9.73,13.2-87L183.41,207Z"/><path class="cls-7" d="M204.15,221.09H204l-12.4-1.88a1,1,0,0,1-.84-1.14,1,1,0,0,1,1.14-.84l12.4,1.89a1,1,0,0,1-.15,2Z"/><path class="cls-6" d="M236.34,239.41h-.15L222,237.24a1,1,0,0,1,.3-2l14.24,2.16a1,1,0,0,1-.15,2Z"/><path class="cls-7" d="M212,235.72h-.15L187.55,232a1,1,0,0,1-.83-1.14,1,1,0,0,1,1.14-.84l24.31,3.69a1,1,0,0,1-.15,2Z"/><path class="cls-6" d="M212.9,252.77h-.15l-27.7-4.2a1,1,0,0,1-.84-1.14,1,1,0,0,1,1.14-.84l27.7,4.2a1,1,0,0,1-.15,2Z"/><path class="cls-7" d="M231.47,271.51h-.15l-48.63-7.38a1,1,0,1,1,.3-2l48.63,7.38a1,1,0,0,1,.84,1.14A1,1,0,0,1,231.47,271.51Z"/><path class="cls-7" d="M207.68,284.81h-.16l-27.34-4.15a1,1,0,0,1-.84-1.14,1,1,0,0,1,1.14-.83l27.35,4.15a1,1,0,0,1-.15,2Z"/><path class="cls-7" d="M245.07,369.74l-115,.24a11,11,0,0,1-11-11l-.17-77.65a11,11,0,0,1,11-11l115-.24a11,11,0,0,1,11,11l.16,77.64A11,11,0,0,1,245.07,369.74Z"/><path class="cls-6" d="M130,371a12,12,0,0,1-12-12l-.17-77.65a12,12,0,0,1,12-12l115-.24h0a12,12,0,0,1,12,12l.16,77.65a12,12,0,0,1-12,12v0l-115,.24Zm114.84-99.86h0l-115,.24a10,10,0,0,0-10,10l.17,77.64a10,10,0,0,0,10,10h0l115-.24h0a10,10,0,0,0,10-10l-.16-77.64A10,10,0,0,0,244.88,271.12Z"/><path class="cls-10" d="M246,251.44l-29,.06a9.81,9.81,0,0,0-9.76,9.8l0,13.88-73.47.16a15,15,0,0,0-14.91,15L119,360A15,15,0,0,0,134,375l107.09-.22a15,15,0,0,0,14.91-15l-.14-68.3V290l-.06-28.82A9.81,9.81,0,0,0,246,251.44Z"/><path class="cls-6" d="M134,376.45A16.46,16.46,0,0,1,117.54,360l-.15-69.73a16.45,16.45,0,0,1,16.41-16.47l72-.16,0-12.38A11.32,11.32,0,0,1,217,250l29-.06h0A11.29,11.29,0,0,1,257.3,261.2l.21,98.55a16.46,16.46,0,0,1-16.41,16.48L134,376.45ZM246,252.94,217,253a8.31,8.31,0,0,0-8.26,8.3l0,13.88a1.5,1.5,0,0,1-1.5,1.5l-73.46.16a13.45,13.45,0,0,0-13.42,13.47l.15,69.73A13.45,13.45,0,0,0,134,373.45h0l107.09-.22a13.46,13.46,0,0,0,13.41-13.47l-.21-98.56a8.28,8.28,0,0,0-8.27-8.26Zm0-1.5h0Z"/><path class="cls-11" d="M245,262.56l-26,.06a8.77,8.77,0,0,0-8.73,8.77l0,12.42L144.6,284a13.41,13.41,0,0,0-13.34,13.4l.13,62.4a13.42,13.42,0,0,0,13.4,13.35l95.82-.2A13.41,13.41,0,0,0,254,359.5l-.13-61.13v-1.28l-.06-25.79A8.77,8.77,0,0,0,245,262.56Z"/><path class="cls-7" d="M246.51,360.35a4.89,4.89,0,1,1-4.89-4.88A4.89,4.89,0,0,1,246.51,360.35Z"/><path class="cls-7" d="M249.92,277.81a1,1,0,0,1-1-1v-13.3a4.24,4.24,0,0,0-4.41-4h-9.69a1,1,0,0,1,0-2h9.69a6.24,6.24,0,0,1,6.41,6v13.3A1,1,0,0,1,249.92,277.81Z"/><rect class="cls-8" x="395.94" y="257.79" width="136.97" height="99.62" rx="14.94" transform="translate(-0.64 0.98) rotate(-0.12)"/><path class="cls-6" d="M411,359a16.49,16.49,0,0,1-16.45-16.41l-.14-69.73a16.46,16.46,0,0,1,16.41-16.48l107.09-.22h0a16.46,16.46,0,0,1,16.44,16.41l.15,69.73a16.46,16.46,0,0,1-16.41,16.47h0L411,359Zm107.12-1.73h0Zm-.18-98.11h0l-107.09.22a13.46,13.46,0,0,0-13.41,13.47l.14,69.73A13.49,13.49,0,0,0,411,356h0l107.08-.23a13.49,13.49,0,0,0,13.42-13.47l-.15-69.73A13.45,13.45,0,0,0,517.9,259.18Z"/><rect class="cls-5" x="395.94" y="257.79" width="136.97" height="99.62" rx="14.94" transform="translate(-0.64 0.98) rotate(-0.12)"/><path class="cls-6" d="M411,359a16.49,16.49,0,0,1-16.45-16.41l-.14-69.73a16.46,16.46,0,0,1,16.41-16.48l107.09-.22h0a16.46,16.46,0,0,1,16.44,16.41l.15,69.73a16.46,16.46,0,0,1-16.41,16.47h0L411,359Zm107.12-1.73h0Zm-.18-98.11h0l-107.09.22a13.46,13.46,0,0,0-13.41,13.47l.14,69.73A13.49,13.49,0,0,0,411,356h0l107.08-.23a13.49,13.49,0,0,0,13.42-13.47l-.15-69.73A13.45,13.45,0,0,0,517.9,259.18Z"/><rect class="cls-12" x="395.94" y="257.79" width="136.97" height="99.62" rx="14.94" transform="translate(-0.64 0.98) rotate(-0.12)"/><rect class="cls-7" x="395.94" y="264.02" width="136.97" height="99.62" rx="10.99" transform="translate(-0.66 0.98) rotate(-0.12)"/><path class="cls-6" d="M407,364.75a12,12,0,0,1-12-12l-.16-77.64a12,12,0,0,1,12-12l115-.25h0a12,12,0,0,1,12,12L534,352.5a12,12,0,0,1-12,12l-115,.24Zm115-2.24v0a10,10,0,0,0,10-10l-.17-77.64a10,10,0,0,0-10-10h0l-115,.25a10,10,0,0,0-10,10l.16,77.65a10,10,0,0,0,10,10h0Z"/><path class="cls-7" d="M522,369.74,407,370a11,11,0,0,1-11-11l-.16-77.65a11,11,0,0,1,11-11l115-.24a11,11,0,0,1,11,11l.17,77.64A11,11,0,0,1,522,369.74Z"/><path class="cls-6" d="M407,371a12,12,0,0,1-12-12l-.16-77.65a12,12,0,0,1,12-12l115-.24h0a12,12,0,0,1,12,12l.17,77.65a12,12,0,0,1-12,12v0L407,371Zm114.84-99.86h0l-115,.24a10,10,0,0,0-10,10L397,359a10,10,0,0,0,10,10h0l115-.24h0a10,10,0,0,0,10-10l-.17-77.64A10,10,0,0,0,521.85,271.12Z"/><path class="cls-9" d="M523,263.13l-29,.06a9.81,9.81,0,0,0-9.76,9.8l0,13.88-73.47.16a15,15,0,0,0-14.91,15l.15,69.73a15,15,0,0,0,15,14.91l107.09-.22a15,15,0,0,0,14.91-15l-.14-68.31v-1.43l-.06-28.82A9.81,9.81,0,0,0,523,263.13Z"/><path class="cls-6" d="M410.93,388.14a16.46,16.46,0,0,1-16.44-16.4L394.34,302a16.46,16.46,0,0,1,16.41-16.47l72-.15,0-12.39A11.32,11.32,0,0,1,494,261.69l29-.06h0a11.32,11.32,0,0,1,11.28,11.26l.2,98.55a16.47,16.47,0,0,1-16.41,16.48L411,388.14ZM523,264.63l-29,.06a8.31,8.31,0,0,0-8.26,8.3l0,13.88a1.5,1.5,0,0,1-1.5,1.5l-73.46.16A13.46,13.46,0,0,0,397.34,302l.15,69.73a13.46,13.46,0,0,0,13.44,13.41h0l107.09-.22a13.49,13.49,0,0,0,13.41-13.47l-.2-98.56a8.31,8.31,0,0,0-8.28-8.26Zm0-1.5h0Z"/><path class="cls-11" d="M521.67,274.25l-26,.06a8.78,8.78,0,0,0-8.73,8.77l0,12.42-65.74.14A13.41,13.41,0,0,0,407.93,309l.13,62.4a13.42,13.42,0,0,0,13.4,13.35l95.82-.2a13.41,13.41,0,0,0,13.34-13.4l-.13-61.13v-1.28l0-25.79A8.78,8.78,0,0,0,521.67,274.25Z"/><path class="cls-7" d="M523.18,372a4.89,4.89,0,1,1-4.89-4.88A4.88,4.88,0,0,1,523.18,372Z"/><path class="cls-7" d="M526.59,289.5a1,1,0,0,1-1-1V275.21a4.25,4.25,0,0,0-4.41-4h-9.69a1,1,0,0,1,0-2h9.69a6.25,6.25,0,0,1,6.41,6V288.5A1,1,0,0,1,526.59,289.5Z"/><rect class="cls-7" x="424.7" y="147.04" width="63.45" height="85.06" rx="1.28" transform="translate(197 -231.09) rotate(35.78)"/><path class="cls-6" d="M457,243.62a2.79,2.79,0,0,1-1.62-.52h0L406,207.49a2.78,2.78,0,0,1-.62-3.88l48.24-66.93a2.78,2.78,0,0,1,3.88-.63l49.4,35.61a2.78,2.78,0,0,1,.63,3.87l-48.25,66.94a2.75,2.75,0,0,1-1.8,1.12A3.4,3.4,0,0,1,457,243.62Zm.13-3Zm-49.22-35.48,49,35.35,48-66.58-49-35.35Z"/><rect class="cls-2" x="424.7" y="147.04" width="63.45" height="85.06" rx="1.28" transform="translate(197 -231.09) rotate(35.78)"/><path class="cls-6" d="M457,243.62a2.79,2.79,0,0,1-1.62-.52h0L406,207.49a2.78,2.78,0,0,1-.62-3.88l48.24-66.93a2.78,2.78,0,0,1,3.88-.63l49.4,35.61a2.78,2.78,0,0,1,.63,3.87l-48.25,66.94a2.75,2.75,0,0,1-1.8,1.12A3.4,3.4,0,0,1,457,243.62Zm.13-3Zm-49.22-35.48,49,35.35,48-66.58-49-35.35Z"/><path class="cls-6" d="M486.5,188.16a1,1,0,0,1-.59-.19l-8.51-6.13a1,1,0,1,1,1.17-1.63l8.51,6.14a1,1,0,0,1,.23,1.4A1,1,0,0,1,486.5,188.16Z"/><path class="cls-6" d="M477.36,200.85a1,1,0,0,1-.59-.19l-37.3-26.89a1,1,0,0,1,1.17-1.62L477.94,199a1,1,0,0,1,.23,1.39A1,1,0,0,1,477.36,200.85Z"/><path class="cls-5" d="M471.14,209.48a1.09,1.09,0,0,1-.59-.19L455.73,198.6A1,1,0,1,1,456.9,197l14.82,10.68a1,1,0,0,1-.58,1.82Z"/><path class="cls-5" d="M442.91,189.13a1,1,0,0,1-.58-.19l-9.08-6.54a1,1,0,0,1,1.17-1.62l9.08,6.54a1,1,0,0,1-.59,1.81Z"/><path class="cls-6" d="M448.84,208.07a1,1,0,0,1-.58-.19l-23-16.56a1,1,0,0,1-.23-1.4,1,1,0,0,1,1.4-.22l23,16.56a1,1,0,0,1,.23,1.39A1,1,0,0,1,448.84,208.07Z"/><rect class="cls-7" x="413.05" y="134.13" width="67.88" height="91" rx="1.28" transform="translate(94.29 -148.51) rotate(21.04)"/><path class="cls-6" d="M461.59,235.41a2.68,2.68,0,0,1-1-.19h0l-61-23.45a2.77,2.77,0,0,1-1.59-3.59l31.75-82.55a2.79,2.79,0,0,1,3.59-1.6l61,23.46a2.78,2.78,0,0,1,1.59,3.59l-31.75,82.55A2.79,2.79,0,0,1,461.59,235.41Zm-60.68-26.36,60.56,23.29,31.59-82.13-60.55-23.3Z"/><rect class="cls-7" x="413.05" y="134.13" width="67.88" height="91" rx="1.28" transform="translate(94.29 -148.51) rotate(21.04)"/><path class="cls-6" d="M461.59,235.41a2.68,2.68,0,0,1-1-.19h0l-61-23.45a2.77,2.77,0,0,1-1.59-3.59l31.75-82.55a2.79,2.79,0,0,1,3.59-1.6l61,23.46a2.78,2.78,0,0,1,1.59,3.59l-31.75,82.55A2.79,2.79,0,0,1,461.59,235.41Zm-60.68-26.36,60.56,23.29,31.59-82.13-60.55-23.3Z"/><path class="cls-6" d="M443.62,156.05a1.13,1.13,0,0,1-.36-.06l-10.49-4a1,1,0,1,1,.72-1.86l10.49,4a1,1,0,0,1,.57,1.29A1,1,0,0,1,443.62,156.05Z"/><path class="cls-6" d="M471.45,185.56a1.1,1.1,0,0,1-.36-.07l-45.91-17.66a1,1,0,0,1,.71-1.87l45.91,17.66a1,1,0,0,1-.35,1.94Z"/><path class="cls-5" d="M467.36,196.18a1.15,1.15,0,0,1-.36-.07l-18.25-7a1,1,0,0,1,.72-1.87l18.25,7a1,1,0,0,1-.36,1.94Z"/><path class="cls-5" d="M432.62,182.81a1.13,1.13,0,0,1-.36-.06l-11.17-4.3a1,1,0,0,1-.57-1.29,1,1,0,0,1,1.29-.58l11.17,4.3a1,1,0,0,1,.57,1.29A1,1,0,0,1,432.62,182.81Z"/><path class="cls-6" d="M443.91,200.79a.92.92,0,0,1-.36-.07l-28.27-10.88A1,1,0,1,1,416,188l28.28,10.87a1,1,0,0,1,.58,1.3A1,1,0,0,1,443.91,200.79Z"/><rect class="cls-5" x="290.03" y="80.79" width="79.46" height="107.38" rx="1.58" transform="translate(61.14 -99.34) rotate(18.85)"/><path class="cls-6" d="M349,199.21a3.11,3.11,0,0,1-1-.16l-72.21-24.66a3.08,3.08,0,0,1-1.92-3.91l33.68-98.63a3.08,3.08,0,0,1,3.91-1.92L383.7,94.58a3.08,3.08,0,0,1,1.92,3.91l-33.68,98.64A3.1,3.1,0,0,1,349,199.21ZM310.5,72.76a.1.1,0,0,0-.08.06l-33.68,98.63a.09.09,0,0,0,.05.1L349,196.21h0a.09.09,0,0,0,.1-.05l33.68-98.64a.1.1,0,0,0,0-.1L310.52,72.77Z"/><rect class="cls-7" x="290.03" y="80.79" width="79.46" height="107.38" rx="1.58" transform="translate(11.79 -25.9) rotate(4.58)"/><path class="cls-6" d="M363.63,192.56h-.25l-76.06-6.09a3.09,3.09,0,0,1-2.1-1.08,3,3,0,0,1-.72-2.24l8.32-103.89a3.09,3.09,0,0,1,3.32-2.82l76.06,6.09A3.07,3.07,0,0,1,375,85.83L366.7,189.72a3.08,3.08,0,0,1-3.07,2.84ZM295.89,79.42a.08.08,0,0,0-.08.07l-8.32,103.89a.11.11,0,0,0,.07.09l76.06,6.09h0c.05,0,.09,0,.09-.08L372,85.59a.08.08,0,0,0-.07-.08L295.9,79.42Z"/><line class="cls-7" x1="341.67" y1="98.97" x2="360.93" y2="100.52"/><path class="cls-5" d="M360.93,101.52h-.08L341.59,100a1,1,0,0,1-.92-1.08,1,1,0,0,1,1.08-.91L361,99.52a1,1,0,0,1,.92,1.08A1,1,0,0,1,360.93,101.52Z"/><line class="cls-7" x1="341.17" y1="105.13" x2="360.44" y2="106.67"/><path class="cls-5" d="M360.44,107.67h-.08l-19.27-1.54a1,1,0,0,1,.16-2l19.27,1.55a1,1,0,0,1-.08,2Z"/><line class="cls-7" x1="296.06" y1="171.31" x2="315.33" y2="172.85"/><path class="cls-5" d="M315.33,173.85h-.08L296,172.31a1,1,0,0,1,.16-2l19.27,1.55a1,1,0,0,1-.08,2Z"/><line class="cls-7" x1="299.04" y1="138" x2="316.18" y2="139.37"/><path class="cls-6" d="M316.18,140.37h-.08L299,139a1,1,0,0,1-.91-1.08,1,1,0,0,1,1.07-.91l17.14,1.37a1,1,0,0,1-.08,2Z"/><line class="cls-7" x1="297.22" y1="160.84" x2="326.68" y2="163.2"/><path class="cls-6" d="M326.68,164.2h-.08l-29.46-2.36a1,1,0,1,1,.16-2l29.46,2.36a1,1,0,0,1-.08,2Z"/><line class="cls-7" x1="298.13" y1="149.42" x2="320.43" y2="151.21"/><path class="cls-6" d="M320.43,152.21h-.08l-22.3-1.78a1,1,0,0,1-.92-1.08,1,1,0,0,1,1.08-.92l22.3,1.79a1,1,0,0,1-.08,2Z"/><line class="cls-7" x1="299.8" y1="127.5" x2="357.48" y2="132.12"/><path class="cls-6" d="M357.48,133.12h-.08l-57.68-4.62a1,1,0,0,1-.92-1.08,1,1,0,0,1,1.08-.92l57.68,4.62a1,1,0,0,1-.08,2Z"/><line class="cls-7" x1="327.55" y1="151.69" x2="355.11" y2="153.89"/><path class="cls-6" d="M355.11,154.89H355l-27.56-2.21a1,1,0,1,1,.16-2l27.56,2.21a1,1,0,0,1-.08,2Z"/><line class="cls-7" x1="322.57" y1="139.73" x2="357.92" y2="142.72"/><path class="cls-6" d="M357.92,143.72h-.09l-35.34-3a1,1,0,0,1,.17-2l35.34,3a1,1,0,0,1-.08,2Z"/></svg>