<?xml version="1.0" encoding="utf-8"?>
<!-- Generator: Adobe Illustrator 22.1.0, SVG Export Plug-In . SVG Version: 6.00 Build 0)  -->
<svg version="1.1" id="Layer_1" xmlns="http://www.w3.org/2000/svg" xmlns:xlink="http://www.w3.org/1999/xlink" x="0px" y="0px"
	 viewBox="0 0 956.3 222.4" style="enable-background:new 0 0 956.3 222.4;" xml:space="preserve">
<style type="text/css">
	.st0{fill:#16ADCE;}
	.st1{fill:#F6554D;}
	.st2{fill:#15B785;}
	.st3{fill:#EABA44;}
	.st4{fill:#1D2B40;}
	.st5{clip-path:url(#SVGID_2_);fill:#1D2B40;}
</style>
<polygon class="st0" points="55.6,139 83.4,166.8 55.6,194.6 "/>
<polygon class="st1" points="111.2,83.4 139,111.2 111.2,139 "/>
<polygon class="st2" points="55.6,27.8 83.4,55.6 55.6,83.4 "/>
<polygon class="st3" points="0,139 27.8,111.2 0,83.4 "/>
<path class="st4" d="M83.4,111.2l27.8-27.8l27.8,27.8L111.2,139L83.4,111.2z M83.4,0L55.6,27.8l27.8,27.8L55.6,83.4L27.8,55.6
	L0,83.4l27.8,27.8L0,139l27.8,27.8L55.6,139l27.8,27.8l-27.8,27.8l27.8,27.8l111.2-111.2L83.4,0z"/>
<polygon class="st4" points="331.5,141.6 330.9,141.6 296.8,34.8 250.3,34.8 250.3,187.3 285.8,187.3 285.8,149.5 282.4,80.8 
	283,80.7 319.4,187.3 343.3,187.3 380,79.8 380.7,79.9 377.3,149.5 377.3,187.3 412.8,187.3 412.8,34.8 366.1,34.8 "/>
<polygon class="st4" points="469.8,34.8 434.3,34.8 434.3,187.3 535.5,187.3 535.5,160.1 469.8,160.1 "/>
<g>
	<defs>
		<rect id="SVGID_1_" width="956.3" height="222.4"/>
	</defs>
	<clipPath id="SVGID_2_">
		<use xlink:href="#SVGID_1_"  style="overflow:visible;"/>
	</clipPath>
	<path class="st5" d="M647.2,113.8c9-8.3,13.5-19.4,13.5-33.3c0-13.7-4.5-24.7-13.5-33.1c-9-8.4-21.6-12.6-37.9-12.6h-58.3v152.5
		h20.6v-61.2h31.6l36.2,61.2h23.2l-37.1-62.8C634.1,122.7,641.4,119.1,647.2,113.8 M571.6,51.1h37.7c10.3,0,18,2.8,23.1,8.5
		c5.1,5.6,7.7,12.7,7.7,21.1c0,8.4-2.5,15.4-7.6,21c-5.1,5.5-12.8,8.3-23.1,8.3h-37.7V51.1z"/>
	<path class="st5" d="M721.2,71.9c-13.1,0-24.5,5.4-34.1,16.1c-9.6,10.7-14.4,24.1-14.4,40.3v4.6c0,16.8,4.7,30.4,14,40.9
		c9.3,10.5,21.9,15.8,37.7,15.8c9.4,0,17.5-1.3,24.1-4c6.6-2.7,12-6,16-10l-8.1-13.4c-3.8,3.5-8.4,6.2-13.7,8.2
		c-5.3,2-11.4,3-18.4,3c-9.6,0-17-3.5-22.3-10.5c-5.3-7-8.1-15.9-8.3-26.8l0.3-0.5h73.5v-12.9c0-15.4-3.9-27.7-11.7-36.9
		C748.1,76.5,736.5,71.9,721.2,71.9 M747,119.3h-52.3l-0.2-0.5c1.1-8.8,4.1-16.1,9-21.9c4.9-5.8,10.8-8.7,17.7-8.7
		c8.5,0,14.9,2.7,19.3,8.1c4.3,5.4,6.5,12.2,6.5,20.3V119.3z"/>
	<path class="st5" d="M831.5,71.9c-13.1,0-24.5,5.4-34.1,16.1c-9.6,10.7-14.4,24.1-14.4,40.3v4.6c0,16.8,4.7,30.4,14,40.9
		c9.3,10.5,21.9,15.8,37.7,15.8c9.4,0,17.5-1.3,24.1-4c6.6-2.7,12-6,16-10l-8.1-13.4c-3.8,3.5-8.4,6.2-13.7,8.2
		c-5.3,2-11.4,3-18.4,3c-9.6,0-17-3.5-22.3-10.5c-5.3-7-8.1-15.9-8.3-26.8l0.3-0.5h73.5v-12.9c0-15.4-3.9-27.7-11.7-36.9
		C858.3,76.5,846.8,71.9,831.5,71.9 M857.2,119.3H805l-0.2-0.5c1.1-8.8,4.1-16.1,9-21.9c4.9-5.8,10.8-8.7,17.7-8.7
		c8.5,0,14.9,2.7,19.3,8.1c4.3,5.4,6.5,12.2,6.5,20.3V119.3z"/>
	<path class="st5" d="M930.2,44c2.9-3.6,7.4-5.4,13.4-5.4c2,0,3.8,0.1,5.6,0.3c1.8,0.2,3.3,0.5,4.6,0.7l2.5-15.7
		c-2.9-0.7-5.6-1.2-8-1.6c-2.4-0.4-4.8-0.6-7.2-0.6c-11.3,0-20.1,3.3-26.4,9.9c-6.3,6.6-9.5,15.9-9.5,28V74h-17.7v15.3h17.7v98h20.6
		v-98h23.6V74h-23.6V59.7C925.8,52.8,927.3,47.6,930.2,44"/>
</g>
</svg>
