<?xml version="1.0" encoding="utf-8"?>
<!-- Generator: Adobe Illustrator 22.1.0, SVG Export Plug-In . SVG Version: 6.00 Build 0)  -->
<svg version="1.1" id="Layer_1" xmlns="http://www.w3.org/2000/svg" xmlns:xlink="http://www.w3.org/1999/xlink" x="0px" y="0px"
	 viewBox="0 0 194.6 222.4" style="enable-background:new 0 0 194.6 222.4;" xml:space="preserve">
<style type="text/css">
	.st0{fill:#16ADCE;}
	.st1{fill:#F6554D;}
	.st2{fill:#15B785;}
	.st3{fill:#EABA44;}
	.st4{fill:#1D2B40;}
	.st5{clip-path:url(#SVGID_2_);fill:#1D2B40;}
</style>
<polygon class="st0" points="55.6,139 83.4,166.8 55.6,194.6 "/>
<polygon class="st1" points="111.2,83.4 139,111.2 111.2,139 "/>
<polygon class="st2" points="55.6,27.8 83.4,55.6 55.6,83.4 "/>
<polygon class="st3" points="0,139 27.8,111.2 0,83.4 "/>
<path class="st4" d="M83.4,111.2l27.8-27.8l27.8,27.8L111.2,139L83.4,111.2z M83.4,0L55.6,27.8l27.8,27.8L55.6,83.4L27.8,55.6
	L0,83.4l27.8,27.8L0,139l27.8,27.8L55.6,139l27.8,27.8l-27.8,27.8l27.8,27.8l111.2-111.2L83.4,0z"/>
<g>
	<defs>
		<rect id="SVGID_1_" width="956.3" height="222.4"/>
	</defs>
	<clipPath id="SVGID_2_">
		<use xlink:href="#SVGID_1_"  style="overflow:visible;"/>
	</clipPath>
</g>
</svg>
