<?xml version="1.0" encoding="utf-8"?>
<!-- Generator: Adobe Illustrator 25.1.0, SVG Export Plug-In . SVG Version: 6.00 Build 0)  -->
<svg version="1.1" id="Layer_1" xmlns="http://www.w3.org/2000/svg" xmlns:xlink="http://www.w3.org/1999/xlink" x="0px" y="0px"
	 viewBox="0 0 1180.22 222.45" style="enable-background:new 0 0 1180.22 222.45;" xml:space="preserve">
<style type="text/css">
	.st0{fill:#16ADCE;}
	.st1{fill:#F6554D;}
	.st2{fill:#15B785;}
	.st3{fill:#EABA44;}
	.st4{fill:#FFFFFF;}
	.st5{clip-path:url(#SVGID_2_);fill:#FFFFFF;}
	.st6{font-family:'Roboto-Regular';}
	.st7{font-size:46.5632px;}
</style>
<polygon class="st0" points="55.61,139.03 83.42,166.84 55.61,194.64 "/>
<polygon class="st1" points="111.22,83.42 139.03,111.22 111.22,139.03 "/>
<polygon class="st2" points="55.61,27.81 83.42,55.61 55.61,83.42 "/>
<polygon class="st3" points="0,139.03 27.81,111.22 0,83.42 "/>
<path class="st4" d="M83.42,111.22l27.8-27.81l27.81,27.81l-27.81,27.81L83.42,111.22z M83.42,0L55.61,27.81l27.81,27.8L55.61,83.42
	L27.81,55.61L0,83.42l27.8,27.81L0,139.03l27.8,27.81l27.81-27.81l27.81,27.81l-27.81,27.81l27.81,27.81l111.22-111.22L83.42,0z"/>
<polygon class="st4" points="331.53,141.56 330.9,141.56 296.76,34.83 250.25,34.83 250.25,187.34 285.76,187.34 285.76,149.52 
	282.41,80.81 283.04,80.71 319.38,187.34 343.26,187.34 380.03,79.77 380.66,79.87 377.3,149.52 377.3,187.34 412.81,187.34 
	412.81,34.83 366.1,34.83 "/>
<polygon class="st4" points="469.82,34.83 434.31,34.83 434.31,187.34 535.49,187.34 535.49,160.1 469.82,160.1 "/>
<g>
	<defs>
		<rect id="SVGID_1_" width="956.31" height="222.45"/>
	</defs>
	<clipPath id="SVGID_2_">
		<use xlink:href="#SVGID_1_"  style="overflow:visible;"/>
	</clipPath>
	<path class="st5" d="M647.19,113.75c9.01-8.27,13.51-19.36,13.51-33.25c0-13.69-4.5-24.72-13.51-33.1
		c-9.01-8.38-21.65-12.57-37.92-12.57h-58.34v152.5h20.63v-61.17h31.6l36.16,61.17h23.17l-37.11-62.78
		C634.14,122.65,641.41,119.06,647.19,113.75 M571.56,51.07h37.71c10.26,0,17.96,2.82,23.1,8.47c5.13,5.65,7.7,12.69,7.7,21.12
		c0,8.44-2.55,15.42-7.65,20.96c-5.1,5.54-12.82,8.31-23.15,8.31h-37.71V51.07z"/>
	<path class="st5" d="M721.24,71.91c-13.13,0-24.49,5.36-34.09,16.08c-9.6,10.72-14.4,24.14-14.4,40.27v4.61
		c0,16.76,4.66,30.39,13.98,40.9c9.32,10.51,21.87,15.76,37.66,15.76c9.43,0,17.46-1.34,24.09-4.01
		c6.63-2.67,11.97-6.01,16.03-10.01l-8.07-13.42c-3.84,3.49-8.4,6.23-13.67,8.22c-5.27,1.99-11.4,2.98-18.38,2.98
		c-9.57,0-17-3.5-22.31-10.5c-5.31-7-8.07-15.93-8.27-26.79l0.31-0.52h73.53v-12.88c0-15.36-3.91-27.65-11.73-36.87
		C748.09,76.52,736.53,71.91,721.24,71.91 M747.01,119.25h-52.27l-0.21-0.52c1.12-8.77,4.12-16.06,9.01-21.87
		c4.89-5.81,10.79-8.72,17.7-8.72c8.52,0,14.94,2.71,19.27,8.14c4.33,5.43,6.49,12.18,6.49,20.25V119.25z"/>
	<path class="st5" d="M831.46,71.91c-13.13,0-24.49,5.36-34.09,16.08c-9.6,10.72-14.4,24.14-14.4,40.27v4.61
		c0,16.76,4.66,30.39,13.98,40.9c9.32,10.51,21.87,15.76,37.65,15.76c9.43,0,17.46-1.34,24.09-4.01
		c6.63-2.67,11.97-6.01,16.03-10.01l-8.06-13.42c-3.84,3.49-8.4,6.23-13.67,8.22c-5.27,1.99-11.4,2.98-18.38,2.98
		c-9.57,0-17-3.5-22.31-10.5c-5.31-7-8.07-15.93-8.28-26.79l0.31-0.52h73.53v-12.88c0-15.36-3.91-27.65-11.73-36.87
		C858.31,76.52,846.75,71.91,831.46,71.91 M857.22,119.25h-52.27l-0.21-0.52c1.12-8.77,4.12-16.06,9.01-21.87
		c4.89-5.81,10.79-8.72,17.7-8.72c8.52,0,14.94,2.71,19.27,8.14c4.33,5.43,6.49,12.18,6.49,20.25V119.25z"/>
	<path class="st5" d="M930.23,44c2.93-3.59,7.4-5.39,13.41-5.39c1.95,0,3.82,0.1,5.6,0.31c1.78,0.21,3.3,0.45,4.56,0.73l2.51-15.71
		c-2.93-0.7-5.6-1.24-8.01-1.62c-2.41-0.38-4.8-0.58-7.17-0.58c-11.31,0-20.13,3.3-26.45,9.9c-6.32,6.6-9.48,15.94-9.48,28.02v14.35
		h-17.7V89.3h17.7v98.04h20.63V89.3h23.57V74.01h-23.57V59.66C925.83,52.81,927.3,47.59,930.23,44"/>
</g>
<path class="st4" d="M1138.24,188.08h-105.66c-21.14,0-38.43-17.29-38.43-38.43v0c0-21.14,17.29-38.43,38.43-38.43h105.66
	c21.14,0,38.43,17.29,38.43,38.43v0C1176.67,170.79,1159.37,188.08,1138.24,188.08z"/>
<text transform="matrix(1 0 0 1 1030.9093 167.225)"><tspan x="0" y="0" class="st3 st6 st7">B</tspan><tspan x="28.99" y="0" class="st0 st6 st7">E</tspan><tspan x="55.45" y="0" class="st1 st6 st7">T</tspan><tspan x="83.24" y="0" class="st2 st6 st7">A</tspan></text>
</svg>
